<mxfile host="65bd71144e">
    <diagram id="o3xQGUq4JhhZXKFNt4qU" name="Page-1">
        <mxGraphModel dx="1750" dy="866" grid="1" gridSize="10" guides="1" tooltips="1" connect="1" arrows="1" fold="1" page="1" pageScale="1" pageWidth="1600" pageHeight="1200" math="0" shadow="0">
            <root>
                <mxCell id="0"/>
                <mxCell id="1" parent="0"/>
                <mxCell id="387" style="edgeStyle=none;html=1;entryX=0.716;entryY=1.001;entryDx=0;entryDy=0;entryPerimeter=0;" parent="1" source="385" target="386" edge="1">
                    <mxGeometry relative="1" as="geometry"/>
                </mxCell>
                <mxCell id="385" value="" style="ellipse;whiteSpace=wrap;html=1;aspect=fixed;fillColor=none;rounded=0;" parent="1" vertex="1">
                    <mxGeometry x="1090" y="555" width="110" height="110" as="geometry"/>
                </mxCell>
                <mxCell id="349" style="edgeStyle=none;html=1;fontSize=24;entryX=0.994;entryY=0.817;entryDx=0;entryDy=0;entryPerimeter=0;rounded=0;" parent="1" source="348" target="350" edge="1">
                    <mxGeometry relative="1" as="geometry">
                        <mxPoint x="440" y="1004" as="targetPoint"/>
                    </mxGeometry>
                </mxCell>
                <mxCell id="348" value="" style="ellipse;whiteSpace=wrap;html=1;aspect=fixed;fillColor=none;rounded=0;" parent="1" vertex="1">
                    <mxGeometry x="220" y="960" width="110" height="110" as="geometry"/>
                </mxCell>
                <mxCell id="345" style="edgeStyle=none;html=1;fontSize=24;entryX=0.4;entryY=1.014;entryDx=0;entryDy=0;entryPerimeter=0;rounded=0;" parent="1" source="333" target="344" edge="1">
                    <mxGeometry relative="1" as="geometry"/>
                </mxCell>
                <mxCell id="333" value="" style="ellipse;whiteSpace=wrap;html=1;aspect=fixed;fillColor=none;rounded=0;" parent="1" vertex="1">
                    <mxGeometry x="910" y="720" width="110" height="110" as="geometry"/>
                </mxCell>
                <mxCell id="57" style="edgeStyle=none;html=1;rounded=0;" parent="1" source="2" target="41" edge="1">
                    <mxGeometry relative="1" as="geometry"/>
                </mxCell>
                <mxCell id="73" style="edgeStyle=none;html=1;rounded=0;" parent="1" source="2" target="39" edge="1">
                    <mxGeometry relative="1" as="geometry"/>
                </mxCell>
                <mxCell id="112" style="edgeStyle=none;html=1;rounded=0;" parent="1" source="2" target="38" edge="1">
                    <mxGeometry relative="1" as="geometry"/>
                </mxCell>
                <mxCell id="124" style="edgeStyle=none;html=1;rounded=0;" parent="1" source="2" target="37" edge="1">
                    <mxGeometry relative="1" as="geometry"/>
                </mxCell>
                <mxCell id="125" style="edgeStyle=none;html=1;rounded=0;" parent="1" source="2" target="36" edge="1">
                    <mxGeometry relative="1" as="geometry"/>
                </mxCell>
                <mxCell id="137" style="edgeStyle=none;html=1;rounded=0;" parent="1" source="2" target="35" edge="1">
                    <mxGeometry relative="1" as="geometry"/>
                </mxCell>
                <mxCell id="158" style="edgeStyle=none;html=1;rounded=0;" parent="1" source="2" target="34" edge="1">
                    <mxGeometry relative="1" as="geometry"/>
                </mxCell>
                <mxCell id="396" style="edgeStyle=none;html=1;" edge="1" parent="1" source="2" target="395">
                    <mxGeometry relative="1" as="geometry"/>
                </mxCell>
                <mxCell id="2" value="Head&lt;br&gt;direction" style="ellipse;whiteSpace=wrap;html=1;aspect=fixed;rounded=0;" parent="1" vertex="1">
                    <mxGeometry x="240" y="100" width="70" height="70" as="geometry"/>
                </mxCell>
                <mxCell id="55" style="edgeStyle=none;html=1;rounded=0;" parent="1" source="3" target="41" edge="1">
                    <mxGeometry relative="1" as="geometry"/>
                </mxCell>
                <mxCell id="56" style="edgeStyle=none;html=1;rounded=0;" parent="1" source="3" target="41" edge="1">
                    <mxGeometry relative="1" as="geometry"/>
                </mxCell>
                <mxCell id="70" style="edgeStyle=none;html=1;rounded=0;" parent="1" source="3" target="39" edge="1">
                    <mxGeometry relative="1" as="geometry"/>
                </mxCell>
                <mxCell id="71" style="edgeStyle=none;html=1;rounded=0;" parent="1" source="3" target="39" edge="1">
                    <mxGeometry relative="1" as="geometry"/>
                </mxCell>
                <mxCell id="72" style="edgeStyle=none;html=1;rounded=0;" parent="1" source="3" target="39" edge="1">
                    <mxGeometry relative="1" as="geometry"/>
                </mxCell>
                <mxCell id="111" style="edgeStyle=none;html=1;rounded=0;" parent="1" source="3" target="38" edge="1">
                    <mxGeometry relative="1" as="geometry"/>
                </mxCell>
                <mxCell id="123" style="edgeStyle=none;html=1;rounded=0;" parent="1" source="3" target="37" edge="1">
                    <mxGeometry relative="1" as="geometry"/>
                </mxCell>
                <mxCell id="126" style="edgeStyle=none;html=1;rounded=0;" parent="1" source="3" target="36" edge="1">
                    <mxGeometry relative="1" as="geometry"/>
                </mxCell>
                <mxCell id="138" style="edgeStyle=none;html=1;rounded=0;" parent="1" source="3" target="35" edge="1">
                    <mxGeometry relative="1" as="geometry"/>
                </mxCell>
                <mxCell id="157" style="edgeStyle=none;html=1;rounded=0;" parent="1" source="3" target="34" edge="1">
                    <mxGeometry relative="1" as="geometry"/>
                </mxCell>
                <mxCell id="3" value="Head&lt;br&gt;X" style="ellipse;whiteSpace=wrap;html=1;aspect=fixed;rounded=0;" parent="1" vertex="1">
                    <mxGeometry x="240" y="180" width="70" height="70" as="geometry"/>
                </mxCell>
                <mxCell id="50" style="edgeStyle=none;html=1;rounded=0;" parent="1" source="4" target="41" edge="1">
                    <mxGeometry relative="1" as="geometry"/>
                </mxCell>
                <mxCell id="54" style="edgeStyle=none;html=1;rounded=0;" parent="1" source="4" target="41" edge="1">
                    <mxGeometry relative="1" as="geometry"/>
                </mxCell>
                <mxCell id="69" style="edgeStyle=none;html=1;rounded=0;" parent="1" source="4" target="39" edge="1">
                    <mxGeometry relative="1" as="geometry"/>
                </mxCell>
                <mxCell id="110" style="edgeStyle=none;html=1;rounded=0;" parent="1" source="4" target="38" edge="1">
                    <mxGeometry relative="1" as="geometry"/>
                </mxCell>
                <mxCell id="121" style="edgeStyle=none;html=1;rounded=0;" parent="1" source="4" target="37" edge="1">
                    <mxGeometry relative="1" as="geometry"/>
                </mxCell>
                <mxCell id="122" style="edgeStyle=none;html=1;rounded=0;" parent="1" source="4" target="37" edge="1">
                    <mxGeometry relative="1" as="geometry"/>
                </mxCell>
                <mxCell id="127" style="edgeStyle=none;html=1;rounded=0;" parent="1" source="4" target="36" edge="1">
                    <mxGeometry relative="1" as="geometry"/>
                </mxCell>
                <mxCell id="139" style="edgeStyle=none;html=1;rounded=0;" parent="1" source="4" target="35" edge="1">
                    <mxGeometry relative="1" as="geometry"/>
                </mxCell>
                <mxCell id="156" style="edgeStyle=none;html=1;rounded=0;" parent="1" source="4" target="34" edge="1">
                    <mxGeometry relative="1" as="geometry"/>
                </mxCell>
                <mxCell id="4" value="Head&lt;br&gt;Y" style="ellipse;whiteSpace=wrap;html=1;aspect=fixed;rounded=0;" parent="1" vertex="1">
                    <mxGeometry x="240" y="260" width="70" height="70" as="geometry"/>
                </mxCell>
                <mxCell id="53" style="edgeStyle=none;html=1;rounded=0;" parent="1" source="7" target="41" edge="1">
                    <mxGeometry relative="1" as="geometry"/>
                </mxCell>
                <mxCell id="67" style="edgeStyle=none;html=1;rounded=0;" parent="1" source="7" target="39" edge="1">
                    <mxGeometry relative="1" as="geometry"/>
                </mxCell>
                <mxCell id="68" style="edgeStyle=none;html=1;rounded=0;" parent="1" source="7" target="39" edge="1">
                    <mxGeometry relative="1" as="geometry"/>
                </mxCell>
                <mxCell id="109" style="edgeStyle=none;html=1;rounded=0;" parent="1" source="7" target="38" edge="1">
                    <mxGeometry relative="1" as="geometry"/>
                </mxCell>
                <mxCell id="120" style="edgeStyle=none;html=1;rounded=0;" parent="1" source="7" target="37" edge="1">
                    <mxGeometry relative="1" as="geometry"/>
                </mxCell>
                <mxCell id="128" style="edgeStyle=none;html=1;rounded=0;" parent="1" source="7" target="37" edge="1">
                    <mxGeometry relative="1" as="geometry"/>
                </mxCell>
                <mxCell id="129" style="edgeStyle=none;html=1;rounded=0;" parent="1" source="7" target="36" edge="1">
                    <mxGeometry relative="1" as="geometry"/>
                </mxCell>
                <mxCell id="140" style="edgeStyle=none;html=1;rounded=0;" parent="1" source="7" target="35" edge="1">
                    <mxGeometry relative="1" as="geometry"/>
                </mxCell>
                <mxCell id="155" style="edgeStyle=none;html=1;rounded=0;" parent="1" source="7" target="34" edge="1">
                    <mxGeometry relative="1" as="geometry"/>
                </mxCell>
                <mxCell id="7" value="Food&lt;br&gt;X" style="ellipse;whiteSpace=wrap;html=1;aspect=fixed;rounded=0;" parent="1" vertex="1">
                    <mxGeometry x="240" y="340" width="70" height="70" as="geometry"/>
                </mxCell>
                <mxCell id="52" style="edgeStyle=none;html=1;rounded=0;" parent="1" source="8" target="41" edge="1">
                    <mxGeometry relative="1" as="geometry"/>
                </mxCell>
                <mxCell id="66" style="edgeStyle=none;html=1;rounded=0;" parent="1" source="8" target="39" edge="1">
                    <mxGeometry relative="1" as="geometry"/>
                </mxCell>
                <mxCell id="108" style="edgeStyle=none;html=1;rounded=0;" parent="1" source="8" target="38" edge="1">
                    <mxGeometry relative="1" as="geometry"/>
                </mxCell>
                <mxCell id="119" style="edgeStyle=none;html=1;rounded=0;" parent="1" target="37" edge="1">
                    <mxGeometry relative="1" as="geometry">
                        <mxPoint x="310" y="460" as="sourcePoint"/>
                    </mxGeometry>
                </mxCell>
                <mxCell id="130" style="edgeStyle=none;html=1;rounded=0;" parent="1" source="8" target="36" edge="1">
                    <mxGeometry relative="1" as="geometry">
                        <mxPoint x="580" y="420" as="targetPoint"/>
                    </mxGeometry>
                </mxCell>
                <mxCell id="141" style="edgeStyle=none;html=1;rounded=0;" parent="1" source="8" target="35" edge="1">
                    <mxGeometry relative="1" as="geometry"/>
                </mxCell>
                <mxCell id="154" style="edgeStyle=none;html=1;rounded=0;" parent="1" source="8" target="34" edge="1">
                    <mxGeometry relative="1" as="geometry"/>
                </mxCell>
                <mxCell id="8" value="Food&lt;br&gt;Y" style="ellipse;whiteSpace=wrap;html=1;aspect=fixed;rounded=0;" parent="1" vertex="1">
                    <mxGeometry x="240" y="420" width="70" height="70" as="geometry"/>
                </mxCell>
                <mxCell id="9" value="Grid size: 60 x 40" style="text;html=1;align=center;verticalAlign=middle;resizable=0;points=[];autosize=1;strokeColor=none;fillColor=none;rounded=0;" parent="1" vertex="1">
                    <mxGeometry x="100" y="800" width="120" height="30" as="geometry"/>
                </mxCell>
                <mxCell id="51" style="edgeStyle=none;html=1;rounded=0;" parent="1" source="15" target="41" edge="1">
                    <mxGeometry relative="1" as="geometry"/>
                </mxCell>
                <mxCell id="65" style="edgeStyle=none;html=1;rounded=0;" parent="1" source="15" target="39" edge="1">
                    <mxGeometry relative="1" as="geometry"/>
                </mxCell>
                <mxCell id="107" style="edgeStyle=none;html=1;rounded=0;" parent="1" source="15" target="38" edge="1">
                    <mxGeometry relative="1" as="geometry"/>
                </mxCell>
                <mxCell id="118" style="edgeStyle=none;html=1;entryX=0;entryY=0.5;entryDx=0;entryDy=0;rounded=0;" parent="1" source="15" target="37" edge="1">
                    <mxGeometry relative="1" as="geometry"/>
                </mxCell>
                <mxCell id="131" style="edgeStyle=none;html=1;rounded=0;" parent="1" source="15" target="36" edge="1">
                    <mxGeometry relative="1" as="geometry"/>
                </mxCell>
                <mxCell id="142" style="edgeStyle=none;html=1;rounded=0;" parent="1" source="15" target="35" edge="1">
                    <mxGeometry relative="1" as="geometry"/>
                </mxCell>
                <mxCell id="153" style="edgeStyle=none;html=1;rounded=0;" parent="1" source="15" target="34" edge="1">
                    <mxGeometry relative="1" as="geometry"/>
                </mxCell>
                <mxCell id="15" value="Body 1&lt;br&gt;X" style="ellipse;whiteSpace=wrap;html=1;aspect=fixed;rounded=0;" parent="1" vertex="1">
                    <mxGeometry x="240" y="530" width="70" height="70" as="geometry"/>
                </mxCell>
                <mxCell id="49" style="edgeStyle=none;html=1;rounded=0;" parent="1" source="16" target="41" edge="1">
                    <mxGeometry relative="1" as="geometry"/>
                </mxCell>
                <mxCell id="64" style="edgeStyle=none;html=1;rounded=0;" parent="1" source="16" target="39" edge="1">
                    <mxGeometry relative="1" as="geometry"/>
                </mxCell>
                <mxCell id="106" style="edgeStyle=none;html=1;rounded=0;" parent="1" source="16" target="38" edge="1">
                    <mxGeometry relative="1" as="geometry"/>
                </mxCell>
                <mxCell id="117" style="edgeStyle=none;html=1;rounded=0;" parent="1" source="16" target="37" edge="1">
                    <mxGeometry relative="1" as="geometry"/>
                </mxCell>
                <mxCell id="132" style="edgeStyle=none;html=1;rounded=0;" parent="1" source="16" target="36" edge="1">
                    <mxGeometry relative="1" as="geometry"/>
                </mxCell>
                <mxCell id="143" style="edgeStyle=none;html=1;rounded=0;" parent="1" source="16" target="35" edge="1">
                    <mxGeometry relative="1" as="geometry"/>
                </mxCell>
                <mxCell id="152" style="edgeStyle=none;html=1;rounded=0;" parent="1" source="16" target="34" edge="1">
                    <mxGeometry relative="1" as="geometry"/>
                </mxCell>
                <mxCell id="16" value="Body 1&lt;br&gt;Y" style="ellipse;whiteSpace=wrap;html=1;aspect=fixed;rounded=0;" parent="1" vertex="1">
                    <mxGeometry x="240" y="610" width="70" height="70" as="geometry"/>
                </mxCell>
                <mxCell id="48" style="edgeStyle=none;html=1;rounded=0;" parent="1" source="17" target="41" edge="1">
                    <mxGeometry relative="1" as="geometry"/>
                </mxCell>
                <mxCell id="63" style="edgeStyle=none;html=1;rounded=0;" parent="1" source="17" target="39" edge="1">
                    <mxGeometry relative="1" as="geometry"/>
                </mxCell>
                <mxCell id="105" style="edgeStyle=none;html=1;rounded=0;" parent="1" source="17" target="38" edge="1">
                    <mxGeometry relative="1" as="geometry"/>
                </mxCell>
                <mxCell id="116" style="edgeStyle=none;html=1;rounded=0;" parent="1" source="17" target="37" edge="1">
                    <mxGeometry relative="1" as="geometry"/>
                </mxCell>
                <mxCell id="133" style="edgeStyle=none;html=1;rounded=0;" parent="1" source="17" target="36" edge="1">
                    <mxGeometry relative="1" as="geometry"/>
                </mxCell>
                <mxCell id="144" style="edgeStyle=none;html=1;rounded=0;" parent="1" source="17" target="35" edge="1">
                    <mxGeometry relative="1" as="geometry"/>
                </mxCell>
                <mxCell id="151" style="edgeStyle=none;html=1;rounded=0;" parent="1" source="17" target="34" edge="1">
                    <mxGeometry relative="1" as="geometry"/>
                </mxCell>
                <mxCell id="17" value="Body 1&lt;br&gt;X" style="ellipse;whiteSpace=wrap;html=1;aspect=fixed;rounded=0;" parent="1" vertex="1">
                    <mxGeometry x="240" y="690" width="70" height="70" as="geometry"/>
                </mxCell>
                <mxCell id="47" style="edgeStyle=none;html=1;rounded=0;" parent="1" source="18" target="41" edge="1">
                    <mxGeometry relative="1" as="geometry"/>
                </mxCell>
                <mxCell id="62" style="edgeStyle=none;html=1;rounded=0;" parent="1" source="18" target="39" edge="1">
                    <mxGeometry relative="1" as="geometry"/>
                </mxCell>
                <mxCell id="104" style="edgeStyle=none;html=1;rounded=0;" parent="1" source="18" target="38" edge="1">
                    <mxGeometry relative="1" as="geometry"/>
                </mxCell>
                <mxCell id="115" style="edgeStyle=none;html=1;rounded=0;" parent="1" source="18" target="37" edge="1">
                    <mxGeometry relative="1" as="geometry"/>
                </mxCell>
                <mxCell id="134" style="edgeStyle=none;html=1;rounded=0;" parent="1" source="18" target="36" edge="1">
                    <mxGeometry relative="1" as="geometry"/>
                </mxCell>
                <mxCell id="145" style="edgeStyle=none;html=1;rounded=0;" parent="1" source="18" target="35" edge="1">
                    <mxGeometry relative="1" as="geometry"/>
                </mxCell>
                <mxCell id="150" style="edgeStyle=none;html=1;rounded=0;" parent="1" source="18" target="34" edge="1">
                    <mxGeometry relative="1" as="geometry"/>
                </mxCell>
                <mxCell id="18" value="Body 1&lt;br&gt;Y" style="ellipse;whiteSpace=wrap;html=1;aspect=fixed;rounded=0;" parent="1" vertex="1">
                    <mxGeometry x="240" y="770" width="70" height="70" as="geometry"/>
                </mxCell>
                <mxCell id="46" style="edgeStyle=none;html=1;rounded=0;" parent="1" source="28" target="41" edge="1">
                    <mxGeometry relative="1" as="geometry"/>
                </mxCell>
                <mxCell id="61" style="edgeStyle=none;html=1;rounded=0;" parent="1" source="28" target="39" edge="1">
                    <mxGeometry relative="1" as="geometry"/>
                </mxCell>
                <mxCell id="103" style="edgeStyle=none;html=1;rounded=0;" parent="1" source="28" target="38" edge="1">
                    <mxGeometry relative="1" as="geometry"/>
                </mxCell>
                <mxCell id="114" style="edgeStyle=none;html=1;rounded=0;" parent="1" source="28" target="37" edge="1">
                    <mxGeometry relative="1" as="geometry"/>
                </mxCell>
                <mxCell id="135" style="edgeStyle=none;html=1;rounded=0;" parent="1" source="28" target="36" edge="1">
                    <mxGeometry relative="1" as="geometry"/>
                </mxCell>
                <mxCell id="146" style="edgeStyle=none;html=1;rounded=0;" parent="1" source="28" target="35" edge="1">
                    <mxGeometry relative="1" as="geometry"/>
                </mxCell>
                <mxCell id="149" style="edgeStyle=none;html=1;rounded=0;" parent="1" source="28" target="34" edge="1">
                    <mxGeometry relative="1" as="geometry"/>
                </mxCell>
                <mxCell id="28" value="Body n&lt;br&gt;X" style="ellipse;whiteSpace=wrap;html=1;aspect=fixed;rounded=0;" parent="1" vertex="1">
                    <mxGeometry x="240" y="900" width="70" height="70" as="geometry"/>
                </mxCell>
                <mxCell id="45" style="edgeStyle=none;html=1;rounded=0;" parent="1" source="29" target="41" edge="1">
                    <mxGeometry relative="1" as="geometry"/>
                </mxCell>
                <mxCell id="60" style="edgeStyle=none;html=1;rounded=0;" parent="1" source="29" target="39" edge="1">
                    <mxGeometry relative="1" as="geometry"/>
                </mxCell>
                <mxCell id="102" style="edgeStyle=none;html=1;rounded=0;" parent="1" source="29" target="38" edge="1">
                    <mxGeometry relative="1" as="geometry"/>
                </mxCell>
                <mxCell id="113" style="edgeStyle=none;html=1;rounded=0;" parent="1" source="29" target="37" edge="1">
                    <mxGeometry relative="1" as="geometry"/>
                </mxCell>
                <mxCell id="136" style="edgeStyle=none;html=1;rounded=0;" parent="1" source="29" target="36" edge="1">
                    <mxGeometry relative="1" as="geometry"/>
                </mxCell>
                <mxCell id="147" style="edgeStyle=none;html=1;rounded=0;" parent="1" source="29" target="35" edge="1">
                    <mxGeometry relative="1" as="geometry"/>
                </mxCell>
                <mxCell id="148" style="edgeStyle=none;html=1;rounded=0;" parent="1" source="29" target="34" edge="1">
                    <mxGeometry relative="1" as="geometry"/>
                </mxCell>
                <mxCell id="29" value="Body n&lt;br&gt;Y" style="ellipse;whiteSpace=wrap;html=1;aspect=fixed;rounded=0;" parent="1" vertex="1">
                    <mxGeometry x="240" y="980" width="70" height="70" as="geometry"/>
                </mxCell>
                <mxCell id="30" value="" style="endArrow=none;dashed=1;html=1;dashPattern=1 3;strokeWidth=2;rounded=0;" parent="1" source="18" target="28" edge="1">
                    <mxGeometry width="50" height="50" relative="1" as="geometry">
                        <mxPoint x="500" y="700" as="sourcePoint"/>
                        <mxPoint x="550" y="650" as="targetPoint"/>
                        <Array as="points"/>
                    </mxGeometry>
                </mxCell>
                <mxCell id="31" value="n = 60 x 40 = 2400" style="text;html=1;strokeColor=none;fillColor=none;align=center;verticalAlign=middle;whiteSpace=wrap;rounded=0;" parent="1" vertex="1">
                    <mxGeometry x="150" y="860" width="120" height="30" as="geometry"/>
                </mxCell>
                <mxCell id="33" value="Input layer" style="text;html=1;strokeColor=none;fillColor=none;align=center;verticalAlign=middle;whiteSpace=wrap;rounded=0;" parent="1" vertex="1">
                    <mxGeometry x="245" y="60" width="60" height="30" as="geometry"/>
                </mxCell>
                <mxCell id="181" style="edgeStyle=none;html=1;rounded=0;" parent="1" source="34" target="159" edge="1">
                    <mxGeometry relative="1" as="geometry"/>
                </mxCell>
                <mxCell id="194" style="edgeStyle=none;html=1;rounded=0;" parent="1" source="34" target="166" edge="1">
                    <mxGeometry relative="1" as="geometry"/>
                </mxCell>
                <mxCell id="201" style="edgeStyle=none;html=1;rounded=0;" parent="1" source="34" target="164" edge="1">
                    <mxGeometry relative="1" as="geometry"/>
                </mxCell>
                <mxCell id="208" style="edgeStyle=none;html=1;rounded=0;" parent="1" source="34" target="163" edge="1">
                    <mxGeometry relative="1" as="geometry"/>
                </mxCell>
                <mxCell id="215" style="edgeStyle=none;html=1;rounded=0;" parent="1" source="34" target="162" edge="1">
                    <mxGeometry relative="1" as="geometry"/>
                </mxCell>
                <mxCell id="224" style="edgeStyle=none;html=1;rounded=0;" parent="1" source="34" target="161" edge="1">
                    <mxGeometry relative="1" as="geometry"/>
                </mxCell>
                <mxCell id="231" style="edgeStyle=none;html=1;rounded=0;" parent="1" source="34" target="160" edge="1">
                    <mxGeometry relative="1" as="geometry"/>
                </mxCell>
                <mxCell id="34" value="node 1" style="ellipse;whiteSpace=wrap;html=1;aspect=fixed;rounded=0;" parent="1" vertex="1">
                    <mxGeometry x="500" y="210" width="70" height="70" as="geometry"/>
                </mxCell>
                <mxCell id="182" style="edgeStyle=none;html=1;rounded=0;" parent="1" source="35" target="160" edge="1">
                    <mxGeometry relative="1" as="geometry"/>
                </mxCell>
                <mxCell id="193" style="edgeStyle=none;html=1;rounded=0;" parent="1" source="35" target="159" edge="1">
                    <mxGeometry relative="1" as="geometry"/>
                </mxCell>
                <mxCell id="200" style="edgeStyle=none;html=1;rounded=0;" parent="1" source="35" target="166" edge="1">
                    <mxGeometry relative="1" as="geometry"/>
                </mxCell>
                <mxCell id="207" style="edgeStyle=none;html=1;rounded=0;" parent="1" source="35" target="164" edge="1">
                    <mxGeometry relative="1" as="geometry"/>
                </mxCell>
                <mxCell id="214" style="edgeStyle=none;html=1;rounded=0;" parent="1" source="35" target="163" edge="1">
                    <mxGeometry relative="1" as="geometry"/>
                </mxCell>
                <mxCell id="223" style="edgeStyle=none;html=1;rounded=0;" parent="1" source="35" target="162" edge="1">
                    <mxGeometry relative="1" as="geometry"/>
                </mxCell>
                <mxCell id="230" style="edgeStyle=none;html=1;rounded=0;" parent="1" source="35" target="161" edge="1">
                    <mxGeometry relative="1" as="geometry"/>
                </mxCell>
                <mxCell id="35" value="node 2" style="ellipse;whiteSpace=wrap;html=1;aspect=fixed;rounded=0;" parent="1" vertex="1">
                    <mxGeometry x="500" y="290" width="70" height="70" as="geometry"/>
                </mxCell>
                <mxCell id="183" style="edgeStyle=none;html=1;rounded=0;" parent="1" source="36" target="161" edge="1">
                    <mxGeometry relative="1" as="geometry"/>
                </mxCell>
                <mxCell id="192" style="edgeStyle=none;html=1;rounded=0;" parent="1" source="36" target="160" edge="1">
                    <mxGeometry relative="1" as="geometry"/>
                </mxCell>
                <mxCell id="199" style="edgeStyle=none;html=1;rounded=0;" parent="1" source="36" target="159" edge="1">
                    <mxGeometry relative="1" as="geometry"/>
                </mxCell>
                <mxCell id="206" style="edgeStyle=none;html=1;rounded=0;" parent="1" source="36" target="166" edge="1">
                    <mxGeometry relative="1" as="geometry"/>
                </mxCell>
                <mxCell id="213" style="edgeStyle=none;html=1;rounded=0;" parent="1" source="36" target="164" edge="1">
                    <mxGeometry relative="1" as="geometry"/>
                </mxCell>
                <mxCell id="222" style="edgeStyle=none;html=1;rounded=0;" parent="1" source="36" target="163" edge="1">
                    <mxGeometry relative="1" as="geometry"/>
                </mxCell>
                <mxCell id="229" style="edgeStyle=none;html=1;rounded=0;" parent="1" source="36" target="162" edge="1">
                    <mxGeometry relative="1" as="geometry"/>
                </mxCell>
                <mxCell id="36" value="node 3" style="ellipse;whiteSpace=wrap;html=1;aspect=fixed;rounded=0;" parent="1" vertex="1">
                    <mxGeometry x="500" y="370" width="70" height="70" as="geometry"/>
                </mxCell>
                <mxCell id="184" style="edgeStyle=none;html=1;rounded=0;" parent="1" source="37" target="162" edge="1">
                    <mxGeometry relative="1" as="geometry"/>
                </mxCell>
                <mxCell id="191" style="edgeStyle=none;html=1;rounded=0;" parent="1" source="37" target="161" edge="1">
                    <mxGeometry relative="1" as="geometry"/>
                </mxCell>
                <mxCell id="198" style="edgeStyle=none;html=1;rounded=0;" parent="1" source="37" target="160" edge="1">
                    <mxGeometry relative="1" as="geometry"/>
                </mxCell>
                <mxCell id="205" style="edgeStyle=none;html=1;rounded=0;" parent="1" source="37" target="159" edge="1">
                    <mxGeometry relative="1" as="geometry"/>
                </mxCell>
                <mxCell id="212" style="edgeStyle=none;html=1;rounded=0;" parent="1" source="37" target="166" edge="1">
                    <mxGeometry relative="1" as="geometry"/>
                </mxCell>
                <mxCell id="221" style="edgeStyle=none;html=1;rounded=0;" parent="1" source="37" target="164" edge="1">
                    <mxGeometry relative="1" as="geometry"/>
                </mxCell>
                <mxCell id="228" style="edgeStyle=none;html=1;rounded=0;" parent="1" source="37" target="163" edge="1">
                    <mxGeometry relative="1" as="geometry"/>
                </mxCell>
                <mxCell id="37" value="node 4" style="ellipse;whiteSpace=wrap;html=1;aspect=fixed;rounded=0;" parent="1" vertex="1">
                    <mxGeometry x="500" y="455" width="70" height="70" as="geometry"/>
                </mxCell>
                <mxCell id="185" style="edgeStyle=none;html=1;rounded=0;" parent="1" source="38" target="163" edge="1">
                    <mxGeometry relative="1" as="geometry"/>
                </mxCell>
                <mxCell id="190" style="edgeStyle=none;html=1;rounded=0;" parent="1" source="38" target="162" edge="1">
                    <mxGeometry relative="1" as="geometry"/>
                </mxCell>
                <mxCell id="197" style="edgeStyle=none;html=1;rounded=0;" parent="1" source="38" target="161" edge="1">
                    <mxGeometry relative="1" as="geometry"/>
                </mxCell>
                <mxCell id="204" style="edgeStyle=none;html=1;rounded=0;" parent="1" source="38" target="160" edge="1">
                    <mxGeometry relative="1" as="geometry"/>
                </mxCell>
                <mxCell id="211" style="edgeStyle=none;html=1;rounded=0;" parent="1" source="38" target="159" edge="1">
                    <mxGeometry relative="1" as="geometry"/>
                </mxCell>
                <mxCell id="220" style="edgeStyle=none;html=1;rounded=0;" parent="1" source="38" target="166" edge="1">
                    <mxGeometry relative="1" as="geometry"/>
                </mxCell>
                <mxCell id="227" style="edgeStyle=none;html=1;rounded=0;" parent="1" source="38" target="164" edge="1">
                    <mxGeometry relative="1" as="geometry"/>
                </mxCell>
                <mxCell id="38" value="node 5" style="ellipse;whiteSpace=wrap;html=1;aspect=fixed;rounded=0;" parent="1" vertex="1">
                    <mxGeometry x="500" y="535" width="70" height="70" as="geometry"/>
                </mxCell>
                <mxCell id="186" style="edgeStyle=none;html=1;rounded=0;" parent="1" source="39" target="164" edge="1">
                    <mxGeometry relative="1" as="geometry"/>
                </mxCell>
                <mxCell id="189" style="edgeStyle=none;html=1;rounded=0;" parent="1" source="39" target="163" edge="1">
                    <mxGeometry relative="1" as="geometry"/>
                </mxCell>
                <mxCell id="196" style="edgeStyle=none;html=1;rounded=0;" parent="1" source="39" target="162" edge="1">
                    <mxGeometry relative="1" as="geometry"/>
                </mxCell>
                <mxCell id="203" style="edgeStyle=none;html=1;rounded=0;" parent="1" source="39" target="161" edge="1">
                    <mxGeometry relative="1" as="geometry"/>
                </mxCell>
                <mxCell id="210" style="edgeStyle=none;html=1;rounded=0;" parent="1" source="39" target="160" edge="1">
                    <mxGeometry relative="1" as="geometry"/>
                </mxCell>
                <mxCell id="219" style="edgeStyle=none;html=1;rounded=0;" parent="1" source="39" target="159" edge="1">
                    <mxGeometry relative="1" as="geometry"/>
                </mxCell>
                <mxCell id="226" style="edgeStyle=none;html=1;rounded=0;" parent="1" source="39" target="166" edge="1">
                    <mxGeometry relative="1" as="geometry"/>
                </mxCell>
                <mxCell id="39" value="node 6" style="ellipse;whiteSpace=wrap;html=1;aspect=fixed;rounded=0;" parent="1" vertex="1">
                    <mxGeometry x="500" y="615" width="70" height="70" as="geometry"/>
                </mxCell>
                <mxCell id="40" value="Hidden layer ID 1" style="text;html=1;strokeColor=none;fillColor=none;align=center;verticalAlign=middle;whiteSpace=wrap;rounded=0;" parent="1" vertex="1">
                    <mxGeometry x="480" y="160" width="110" height="30" as="geometry"/>
                </mxCell>
                <mxCell id="187" style="edgeStyle=none;html=1;rounded=0;" parent="1" source="41" target="166" edge="1">
                    <mxGeometry relative="1" as="geometry"/>
                </mxCell>
                <mxCell id="188" style="edgeStyle=none;html=1;rounded=0;" parent="1" source="41" target="164" edge="1">
                    <mxGeometry relative="1" as="geometry"/>
                </mxCell>
                <mxCell id="195" style="edgeStyle=none;html=1;rounded=0;" parent="1" source="41" target="163" edge="1">
                    <mxGeometry relative="1" as="geometry"/>
                </mxCell>
                <mxCell id="202" style="edgeStyle=none;html=1;rounded=0;" parent="1" source="41" target="162" edge="1">
                    <mxGeometry relative="1" as="geometry"/>
                </mxCell>
                <mxCell id="209" style="edgeStyle=none;html=1;rounded=0;" parent="1" source="41" target="161" edge="1">
                    <mxGeometry relative="1" as="geometry"/>
                </mxCell>
                <mxCell id="216" style="edgeStyle=none;html=1;rounded=0;" parent="1" source="41" target="160" edge="1">
                    <mxGeometry relative="1" as="geometry"/>
                </mxCell>
                <mxCell id="218" style="edgeStyle=none;html=1;rounded=0;" parent="1" source="41" target="160" edge="1">
                    <mxGeometry relative="1" as="geometry"/>
                </mxCell>
                <mxCell id="225" style="edgeStyle=none;html=1;rounded=0;" parent="1" source="41" target="159" edge="1">
                    <mxGeometry relative="1" as="geometry"/>
                </mxCell>
                <mxCell id="41" value="node x" style="ellipse;whiteSpace=wrap;html=1;aspect=fixed;rounded=0;" parent="1" vertex="1">
                    <mxGeometry x="500" y="740" width="70" height="70" as="geometry"/>
                </mxCell>
                <mxCell id="42" value="" style="endArrow=none;dashed=1;html=1;dashPattern=1 3;strokeWidth=2;rounded=0;" parent="1" source="39" target="41" edge="1">
                    <mxGeometry width="50" height="50" relative="1" as="geometry">
                        <mxPoint x="710" y="580" as="sourcePoint"/>
                        <mxPoint x="760" y="530" as="targetPoint"/>
                    </mxGeometry>
                </mxCell>
                <mxCell id="43" value="A lot" style="text;html=1;strokeColor=none;fillColor=none;align=center;verticalAlign=middle;whiteSpace=wrap;rounded=0;" parent="1" vertex="1">
                    <mxGeometry x="520" y="680" width="60" height="30" as="geometry"/>
                </mxCell>
                <mxCell id="283" style="edgeStyle=none;html=1;rounded=0;" parent="1" source="159" target="169" edge="1">
                    <mxGeometry relative="1" as="geometry"/>
                </mxCell>
                <mxCell id="284" style="edgeStyle=none;html=1;rounded=0;" parent="1" source="159" target="170" edge="1">
                    <mxGeometry relative="1" as="geometry"/>
                </mxCell>
                <mxCell id="285" style="edgeStyle=none;html=1;rounded=0;" parent="1" source="159" target="171" edge="1">
                    <mxGeometry relative="1" as="geometry"/>
                </mxCell>
                <mxCell id="286" style="edgeStyle=none;html=1;rounded=0;" parent="1" source="159" target="172" edge="1">
                    <mxGeometry relative="1" as="geometry"/>
                </mxCell>
                <mxCell id="287" style="edgeStyle=none;html=1;rounded=0;" parent="1" source="159" target="173" edge="1">
                    <mxGeometry relative="1" as="geometry"/>
                </mxCell>
                <mxCell id="288" style="edgeStyle=none;html=1;rounded=0;" parent="1" source="159" target="174" edge="1">
                    <mxGeometry relative="1" as="geometry"/>
                </mxCell>
                <mxCell id="289" style="edgeStyle=none;html=1;rounded=0;" parent="1" source="159" target="176" edge="1">
                    <mxGeometry relative="1" as="geometry"/>
                </mxCell>
                <mxCell id="159" value="node 1" style="ellipse;whiteSpace=wrap;html=1;aspect=fixed;rounded=0;" parent="1" vertex="1">
                    <mxGeometry x="690" y="210" width="70" height="70" as="geometry"/>
                </mxCell>
                <mxCell id="290" style="edgeStyle=none;html=1;rounded=0;" parent="1" source="160" target="169" edge="1">
                    <mxGeometry relative="1" as="geometry"/>
                </mxCell>
                <mxCell id="291" style="edgeStyle=none;html=1;rounded=0;" parent="1" source="160" target="170" edge="1">
                    <mxGeometry relative="1" as="geometry"/>
                </mxCell>
                <mxCell id="292" style="edgeStyle=none;html=1;rounded=0;" parent="1" source="160" target="171" edge="1">
                    <mxGeometry relative="1" as="geometry"/>
                </mxCell>
                <mxCell id="293" style="edgeStyle=none;html=1;rounded=0;" parent="1" source="160" target="172" edge="1">
                    <mxGeometry relative="1" as="geometry"/>
                </mxCell>
                <mxCell id="294" style="edgeStyle=none;html=1;rounded=0;" parent="1" source="160" target="173" edge="1">
                    <mxGeometry relative="1" as="geometry"/>
                </mxCell>
                <mxCell id="295" style="edgeStyle=none;html=1;rounded=0;" parent="1" source="160" target="174" edge="1">
                    <mxGeometry relative="1" as="geometry"/>
                </mxCell>
                <mxCell id="296" style="edgeStyle=none;html=1;rounded=0;" parent="1" source="160" target="176" edge="1">
                    <mxGeometry relative="1" as="geometry"/>
                </mxCell>
                <mxCell id="160" value="node 2" style="ellipse;whiteSpace=wrap;html=1;aspect=fixed;rounded=0;" parent="1" vertex="1">
                    <mxGeometry x="690" y="290" width="70" height="70" as="geometry"/>
                </mxCell>
                <mxCell id="297" style="edgeStyle=none;html=1;rounded=0;" parent="1" source="161" target="169" edge="1">
                    <mxGeometry relative="1" as="geometry"/>
                </mxCell>
                <mxCell id="298" style="edgeStyle=none;html=1;rounded=0;" parent="1" source="161" target="170" edge="1">
                    <mxGeometry relative="1" as="geometry"/>
                </mxCell>
                <mxCell id="299" style="edgeStyle=none;html=1;rounded=0;" parent="1" source="161" target="171" edge="1">
                    <mxGeometry relative="1" as="geometry"/>
                </mxCell>
                <mxCell id="300" style="edgeStyle=none;html=1;rounded=0;" parent="1" source="161" target="172" edge="1">
                    <mxGeometry relative="1" as="geometry"/>
                </mxCell>
                <mxCell id="301" style="edgeStyle=none;html=1;rounded=0;" parent="1" source="161" target="173" edge="1">
                    <mxGeometry relative="1" as="geometry"/>
                </mxCell>
                <mxCell id="302" style="edgeStyle=none;html=1;rounded=0;" parent="1" source="161" target="174" edge="1">
                    <mxGeometry relative="1" as="geometry"/>
                </mxCell>
                <mxCell id="303" style="edgeStyle=none;html=1;rounded=0;" parent="1" source="161" target="176" edge="1">
                    <mxGeometry relative="1" as="geometry"/>
                </mxCell>
                <mxCell id="161" value="node 3" style="ellipse;whiteSpace=wrap;html=1;aspect=fixed;rounded=0;" parent="1" vertex="1">
                    <mxGeometry x="690" y="370" width="70" height="70" as="geometry"/>
                </mxCell>
                <mxCell id="304" style="edgeStyle=none;html=1;rounded=0;" parent="1" source="162" target="169" edge="1">
                    <mxGeometry relative="1" as="geometry"/>
                </mxCell>
                <mxCell id="305" style="edgeStyle=none;html=1;rounded=0;" parent="1" source="162" target="170" edge="1">
                    <mxGeometry relative="1" as="geometry"/>
                </mxCell>
                <mxCell id="306" style="edgeStyle=none;html=1;rounded=0;" parent="1" source="162" target="171" edge="1">
                    <mxGeometry relative="1" as="geometry"/>
                </mxCell>
                <mxCell id="307" style="edgeStyle=none;html=1;rounded=0;" parent="1" source="162" target="172" edge="1">
                    <mxGeometry relative="1" as="geometry"/>
                </mxCell>
                <mxCell id="308" style="edgeStyle=none;html=1;rounded=0;" parent="1" source="162" target="173" edge="1">
                    <mxGeometry relative="1" as="geometry"/>
                </mxCell>
                <mxCell id="309" style="edgeStyle=none;html=1;rounded=0;" parent="1" source="162" target="174" edge="1">
                    <mxGeometry relative="1" as="geometry"/>
                </mxCell>
                <mxCell id="310" style="edgeStyle=none;html=1;rounded=0;" parent="1" source="162" target="176" edge="1">
                    <mxGeometry relative="1" as="geometry"/>
                </mxCell>
                <mxCell id="162" value="node 4" style="ellipse;whiteSpace=wrap;html=1;aspect=fixed;rounded=0;" parent="1" vertex="1">
                    <mxGeometry x="690" y="455" width="70" height="70" as="geometry"/>
                </mxCell>
                <mxCell id="311" style="edgeStyle=none;html=1;rounded=0;" parent="1" source="163" target="169" edge="1">
                    <mxGeometry relative="1" as="geometry"/>
                </mxCell>
                <mxCell id="312" style="edgeStyle=none;html=1;rounded=0;" parent="1" source="163" target="170" edge="1">
                    <mxGeometry relative="1" as="geometry"/>
                </mxCell>
                <mxCell id="313" style="edgeStyle=none;html=1;rounded=0;" parent="1" source="163" target="171" edge="1">
                    <mxGeometry relative="1" as="geometry"/>
                </mxCell>
                <mxCell id="314" style="edgeStyle=none;html=1;rounded=0;" parent="1" source="163" target="172" edge="1">
                    <mxGeometry relative="1" as="geometry"/>
                </mxCell>
                <mxCell id="315" style="edgeStyle=none;html=1;rounded=0;" parent="1" source="163" target="173" edge="1">
                    <mxGeometry relative="1" as="geometry"/>
                </mxCell>
                <mxCell id="316" style="edgeStyle=none;html=1;rounded=0;" parent="1" source="163" target="174" edge="1">
                    <mxGeometry relative="1" as="geometry"/>
                </mxCell>
                <mxCell id="317" style="edgeStyle=none;html=1;rounded=0;" parent="1" source="163" target="176" edge="1">
                    <mxGeometry relative="1" as="geometry"/>
                </mxCell>
                <mxCell id="163" value="node 5" style="ellipse;whiteSpace=wrap;html=1;aspect=fixed;rounded=0;" parent="1" vertex="1">
                    <mxGeometry x="690" y="535" width="70" height="70" as="geometry"/>
                </mxCell>
                <mxCell id="318" style="edgeStyle=none;html=1;rounded=0;" parent="1" source="164" target="169" edge="1">
                    <mxGeometry relative="1" as="geometry"/>
                </mxCell>
                <mxCell id="319" style="edgeStyle=none;html=1;rounded=0;" parent="1" source="164" target="170" edge="1">
                    <mxGeometry relative="1" as="geometry"/>
                </mxCell>
                <mxCell id="320" style="edgeStyle=none;html=1;rounded=0;" parent="1" source="164" target="171" edge="1">
                    <mxGeometry relative="1" as="geometry"/>
                </mxCell>
                <mxCell id="321" style="edgeStyle=none;html=1;rounded=0;" parent="1" source="164" target="172" edge="1">
                    <mxGeometry relative="1" as="geometry"/>
                </mxCell>
                <mxCell id="322" style="edgeStyle=none;html=1;rounded=0;" parent="1" source="164" target="173" edge="1">
                    <mxGeometry relative="1" as="geometry"/>
                </mxCell>
                <mxCell id="323" style="edgeStyle=none;html=1;rounded=0;" parent="1" source="164" target="174" edge="1">
                    <mxGeometry relative="1" as="geometry"/>
                </mxCell>
                <mxCell id="324" style="edgeStyle=none;html=1;rounded=0;" parent="1" source="164" target="176" edge="1">
                    <mxGeometry relative="1" as="geometry"/>
                </mxCell>
                <mxCell id="164" value="node 6" style="ellipse;whiteSpace=wrap;html=1;aspect=fixed;rounded=0;" parent="1" vertex="1">
                    <mxGeometry x="690" y="615" width="70" height="70" as="geometry"/>
                </mxCell>
                <mxCell id="165" value="Hidden layer ID 2" style="text;html=1;strokeColor=none;fillColor=none;align=center;verticalAlign=middle;whiteSpace=wrap;rounded=0;" parent="1" vertex="1">
                    <mxGeometry x="670" y="160" width="110" height="30" as="geometry"/>
                </mxCell>
                <mxCell id="325" style="edgeStyle=none;html=1;rounded=0;" parent="1" source="166" target="169" edge="1">
                    <mxGeometry relative="1" as="geometry"/>
                </mxCell>
                <mxCell id="326" style="edgeStyle=none;html=1;rounded=0;" parent="1" source="166" target="170" edge="1">
                    <mxGeometry relative="1" as="geometry"/>
                </mxCell>
                <mxCell id="327" style="edgeStyle=none;html=1;rounded=0;" parent="1" source="166" target="171" edge="1">
                    <mxGeometry relative="1" as="geometry"/>
                </mxCell>
                <mxCell id="328" style="edgeStyle=none;html=1;rounded=0;" parent="1" source="166" target="172" edge="1">
                    <mxGeometry relative="1" as="geometry"/>
                </mxCell>
                <mxCell id="329" style="edgeStyle=none;html=1;rounded=0;" parent="1" source="166" target="173" edge="1">
                    <mxGeometry relative="1" as="geometry"/>
                </mxCell>
                <mxCell id="330" style="edgeStyle=none;html=1;rounded=0;" parent="1" source="166" target="174" edge="1">
                    <mxGeometry relative="1" as="geometry"/>
                </mxCell>
                <mxCell id="331" style="edgeStyle=none;html=1;rounded=0;" parent="1" source="166" target="176" edge="1">
                    <mxGeometry relative="1" as="geometry"/>
                </mxCell>
                <mxCell id="166" value="node x" style="ellipse;whiteSpace=wrap;html=1;aspect=fixed;rounded=0;" parent="1" vertex="1">
                    <mxGeometry x="690" y="740" width="70" height="70" as="geometry"/>
                </mxCell>
                <mxCell id="167" value="" style="endArrow=none;dashed=1;html=1;dashPattern=1 3;strokeWidth=2;rounded=0;" parent="1" source="164" target="166" edge="1">
                    <mxGeometry width="50" height="50" relative="1" as="geometry">
                        <mxPoint x="900" y="580" as="sourcePoint"/>
                        <mxPoint x="950" y="530" as="targetPoint"/>
                    </mxGeometry>
                </mxCell>
                <mxCell id="168" value="A lot" style="text;html=1;strokeColor=none;fillColor=none;align=center;verticalAlign=middle;whiteSpace=wrap;rounded=0;" parent="1" vertex="1">
                    <mxGeometry x="710" y="680" width="60" height="30" as="geometry"/>
                </mxCell>
                <mxCell id="356" style="edgeStyle=none;html=1;" parent="1" source="169" target="351" edge="1">
                    <mxGeometry relative="1" as="geometry"/>
                </mxCell>
                <mxCell id="357" style="edgeStyle=none;html=1;" parent="1" source="169" target="352" edge="1">
                    <mxGeometry relative="1" as="geometry"/>
                </mxCell>
                <mxCell id="358" style="edgeStyle=none;html=1;" parent="1" source="169" target="353" edge="1">
                    <mxGeometry relative="1" as="geometry"/>
                </mxCell>
                <mxCell id="359" style="edgeStyle=none;html=1;" parent="1" source="169" target="354" edge="1">
                    <mxGeometry relative="1" as="geometry"/>
                </mxCell>
                <mxCell id="169" value="node 1" style="ellipse;whiteSpace=wrap;html=1;aspect=fixed;rounded=0;" parent="1" vertex="1">
                    <mxGeometry x="930" y="210" width="70" height="70" as="geometry"/>
                </mxCell>
                <mxCell id="360" style="edgeStyle=none;html=1;" parent="1" source="170" target="351" edge="1">
                    <mxGeometry relative="1" as="geometry">
                        <mxPoint x="1190" y="390" as="targetPoint"/>
                    </mxGeometry>
                </mxCell>
                <mxCell id="361" style="edgeStyle=none;html=1;" parent="1" source="170" target="352" edge="1">
                    <mxGeometry relative="1" as="geometry"/>
                </mxCell>
                <mxCell id="362" style="edgeStyle=none;html=1;" parent="1" source="170" target="353" edge="1">
                    <mxGeometry relative="1" as="geometry"/>
                </mxCell>
                <mxCell id="363" style="edgeStyle=none;html=1;" parent="1" source="170" target="354" edge="1">
                    <mxGeometry relative="1" as="geometry"/>
                </mxCell>
                <mxCell id="170" value="node 2" style="ellipse;whiteSpace=wrap;html=1;aspect=fixed;rounded=0;" parent="1" vertex="1">
                    <mxGeometry x="930" y="290" width="70" height="70" as="geometry"/>
                </mxCell>
                <mxCell id="364" style="edgeStyle=none;html=1;" parent="1" source="171" target="351" edge="1">
                    <mxGeometry relative="1" as="geometry"/>
                </mxCell>
                <mxCell id="365" style="edgeStyle=none;html=1;" parent="1" source="171" target="352" edge="1">
                    <mxGeometry relative="1" as="geometry"/>
                </mxCell>
                <mxCell id="366" style="edgeStyle=none;html=1;" parent="1" source="171" target="353" edge="1">
                    <mxGeometry relative="1" as="geometry"/>
                </mxCell>
                <mxCell id="367" style="edgeStyle=none;html=1;" parent="1" source="171" target="354" edge="1">
                    <mxGeometry relative="1" as="geometry"/>
                </mxCell>
                <mxCell id="171" value="node 3" style="ellipse;whiteSpace=wrap;html=1;aspect=fixed;rounded=0;" parent="1" vertex="1">
                    <mxGeometry x="930" y="370" width="70" height="70" as="geometry"/>
                </mxCell>
                <mxCell id="368" style="edgeStyle=none;html=1;" parent="1" source="172" target="351" edge="1">
                    <mxGeometry relative="1" as="geometry"/>
                </mxCell>
                <mxCell id="369" style="edgeStyle=none;html=1;" parent="1" source="172" target="352" edge="1">
                    <mxGeometry relative="1" as="geometry"/>
                </mxCell>
                <mxCell id="370" style="edgeStyle=none;html=1;" parent="1" source="172" target="353" edge="1">
                    <mxGeometry relative="1" as="geometry"/>
                </mxCell>
                <mxCell id="371" style="edgeStyle=none;html=1;" parent="1" source="172" target="354" edge="1">
                    <mxGeometry relative="1" as="geometry"/>
                </mxCell>
                <mxCell id="172" value="node 4" style="ellipse;whiteSpace=wrap;html=1;aspect=fixed;rounded=0;" parent="1" vertex="1">
                    <mxGeometry x="930" y="455" width="70" height="70" as="geometry"/>
                </mxCell>
                <mxCell id="372" style="edgeStyle=none;html=1;" parent="1" source="173" target="351" edge="1">
                    <mxGeometry relative="1" as="geometry"/>
                </mxCell>
                <mxCell id="373" style="edgeStyle=none;html=1;" parent="1" source="173" target="352" edge="1">
                    <mxGeometry relative="1" as="geometry"/>
                </mxCell>
                <mxCell id="374" style="edgeStyle=none;html=1;" parent="1" source="173" target="353" edge="1">
                    <mxGeometry relative="1" as="geometry"/>
                </mxCell>
                <mxCell id="375" style="edgeStyle=none;html=1;" parent="1" source="173" target="354" edge="1">
                    <mxGeometry relative="1" as="geometry"/>
                </mxCell>
                <mxCell id="173" value="node 5" style="ellipse;whiteSpace=wrap;html=1;aspect=fixed;rounded=0;" parent="1" vertex="1">
                    <mxGeometry x="930" y="535" width="70" height="70" as="geometry"/>
                </mxCell>
                <mxCell id="376" style="edgeStyle=none;html=1;" parent="1" source="174" target="351" edge="1">
                    <mxGeometry relative="1" as="geometry"/>
                </mxCell>
                <mxCell id="377" style="edgeStyle=none;html=1;" parent="1" source="174" target="352" edge="1">
                    <mxGeometry relative="1" as="geometry"/>
                </mxCell>
                <mxCell id="378" style="edgeStyle=none;html=1;" parent="1" source="174" target="353" edge="1">
                    <mxGeometry relative="1" as="geometry"/>
                </mxCell>
                <mxCell id="379" style="edgeStyle=none;html=1;" parent="1" source="174" target="354" edge="1">
                    <mxGeometry relative="1" as="geometry"/>
                </mxCell>
                <mxCell id="174" value="node 6" style="ellipse;whiteSpace=wrap;html=1;aspect=fixed;rounded=0;" parent="1" vertex="1">
                    <mxGeometry x="930" y="615" width="70" height="70" as="geometry"/>
                </mxCell>
                <mxCell id="175" value="Hidden layer ID x" style="text;html=1;strokeColor=none;fillColor=none;align=center;verticalAlign=middle;whiteSpace=wrap;rounded=0;" parent="1" vertex="1">
                    <mxGeometry x="910" y="160" width="110" height="30" as="geometry"/>
                </mxCell>
                <mxCell id="177" value="" style="endArrow=none;dashed=1;html=1;dashPattern=1 3;strokeWidth=2;rounded=0;" parent="1" source="174" target="176" edge="1">
                    <mxGeometry width="50" height="50" relative="1" as="geometry">
                        <mxPoint x="1140" y="580" as="sourcePoint"/>
                        <mxPoint x="1190" y="530" as="targetPoint"/>
                    </mxGeometry>
                </mxCell>
                <mxCell id="178" value="A lot" style="text;html=1;strokeColor=none;fillColor=none;align=center;verticalAlign=middle;whiteSpace=wrap;rounded=0;" parent="1" vertex="1">
                    <mxGeometry x="950" y="690" width="60" height="30" as="geometry"/>
                </mxCell>
                <mxCell id="179" value="" style="endArrow=none;dashed=1;html=1;dashPattern=1 3;strokeWidth=2;rounded=0;" parent="1" source="165" target="175" edge="1">
                    <mxGeometry width="50" height="50" relative="1" as="geometry">
                        <mxPoint x="780" y="430" as="sourcePoint"/>
                        <mxPoint x="830" y="380" as="targetPoint"/>
                    </mxGeometry>
                </mxCell>
                <mxCell id="180" value="A lot" style="text;html=1;strokeColor=none;fillColor=none;align=center;verticalAlign=middle;whiteSpace=wrap;rounded=0;" parent="1" vertex="1">
                    <mxGeometry x="810" y="140" width="60" height="30" as="geometry"/>
                </mxCell>
                <mxCell id="380" style="edgeStyle=none;html=1;" parent="1" source="176" target="351" edge="1">
                    <mxGeometry relative="1" as="geometry"/>
                </mxCell>
                <mxCell id="381" style="edgeStyle=none;html=1;" parent="1" source="176" target="352" edge="1">
                    <mxGeometry relative="1" as="geometry"/>
                </mxCell>
                <mxCell id="383" style="edgeStyle=none;html=1;" parent="1" source="176" target="353" edge="1">
                    <mxGeometry relative="1" as="geometry"/>
                </mxCell>
                <mxCell id="384" style="edgeStyle=none;html=1;" parent="1" source="176" target="354" edge="1">
                    <mxGeometry relative="1" as="geometry"/>
                </mxCell>
                <mxCell id="176" value="node x" style="ellipse;whiteSpace=wrap;html=1;aspect=fixed;rounded=0;" parent="1" vertex="1">
                    <mxGeometry x="930" y="740" width="70" height="70" as="geometry"/>
                </mxCell>
                <mxCell id="344" value="&lt;h1&gt;&lt;span style=&quot;font-weight: 400; text-align: center;&quot;&gt;Node parameters&lt;/span&gt;&lt;br&gt;&lt;/h1&gt;&lt;hr&gt;&lt;p&gt;ID = {{Layer ID}}_{{node ID}} eg: x:x&lt;br&gt;&lt;/p&gt;&lt;p&gt;parrents (x amount):&lt;/p&gt;&lt;blockquote style=&quot;margin: 0 0 0 40px; border: none; padding: 0px;&quot;&gt;&lt;span style=&quot;background-color: initial;&quot;&gt;parrent1 = {&lt;br&gt;&lt;/span&gt;&lt;span style=&quot;background-color: initial; white-space: pre;&quot;&gt;&#9;&lt;/span&gt;&lt;span style=&quot;background-color: initial;&quot;&gt;pointer = {{parrent node pointer}}&lt;br&gt;&lt;/span&gt;&lt;span style=&quot;background-color: initial; white-space: pre;&quot;&gt;&#9;&lt;/span&gt;&lt;span style=&quot;background-color: initial;&quot;&gt;weigth = {{float from 0 to 1}}&lt;br&gt;}&lt;/span&gt;&lt;/blockquote&gt;&lt;p&gt;&lt;span style=&quot;background-color: initial;&quot;&gt;bias = {{any real number}}&lt;br&gt;&lt;/span&gt;&lt;span style=&quot;background-color: initial;&quot;&gt;&lt;br&gt;value&amp;nbsp;&lt;/span&gt;&lt;span style=&quot;background-color: initial;&quot;&gt;(output of a node):&lt;br&gt;&lt;/span&gt;&lt;span style=&quot;background-color: initial;&quot;&gt;for parrent in parrents:&lt;br&gt;&lt;span style=&quot;white-space: pre;&quot;&gt;&#9;&lt;/span&gt;value += parrent.pointer.value * parrent.weigth&lt;br&gt;value += bias&lt;/span&gt;&lt;/p&gt;" style="text;html=1;strokeColor=none;fillColor=none;spacing=5;spacingTop=-20;whiteSpace=wrap;overflow=hidden;rounded=0;direction=west;" parent="1" vertex="1">
                    <mxGeometry x="720" y="860" width="325" height="280" as="geometry"/>
                </mxCell>
                <mxCell id="350" value="&lt;h1&gt;&lt;span style=&quot;font-weight: 400; text-align: center;&quot;&gt;Input node parameters&lt;/span&gt;&lt;br&gt;&lt;/h1&gt;&lt;hr&gt;&lt;p&gt;ID = {{name}}&lt;br&gt;&lt;/p&gt;&lt;p&gt;value = {{the value}}&lt;/p&gt;" style="text;html=1;strokeColor=none;fillColor=none;spacing=5;spacingTop=-20;whiteSpace=wrap;overflow=hidden;rounded=0;direction=west;" parent="1" vertex="1">
                    <mxGeometry x="440" y="940" width="270" height="120" as="geometry"/>
                </mxCell>
                <mxCell id="389" style="edgeStyle=none;html=1;entryX=0;entryY=0;entryDx=0;entryDy=0;" parent="1" source="351" target="388" edge="1">
                    <mxGeometry relative="1" as="geometry"/>
                </mxCell>
                <mxCell id="351" value="up" style="ellipse;whiteSpace=wrap;html=1;aspect=fixed;rounded=0;" parent="1" vertex="1">
                    <mxGeometry x="1110" y="330" width="70" height="70" as="geometry"/>
                </mxCell>
                <mxCell id="390" style="edgeStyle=none;html=1;entryX=0;entryY=0.25;entryDx=0;entryDy=0;" parent="1" source="352" target="388" edge="1">
                    <mxGeometry relative="1" as="geometry"/>
                </mxCell>
                <mxCell id="352" value="right" style="ellipse;whiteSpace=wrap;html=1;aspect=fixed;rounded=0;" parent="1" vertex="1">
                    <mxGeometry x="1110" y="410" width="70" height="70" as="geometry"/>
                </mxCell>
                <mxCell id="391" style="edgeStyle=none;html=1;entryX=0;entryY=0.5;entryDx=0;entryDy=0;" parent="1" source="353" target="388" edge="1">
                    <mxGeometry relative="1" as="geometry"/>
                </mxCell>
                <mxCell id="353" value="down" style="ellipse;whiteSpace=wrap;html=1;aspect=fixed;rounded=0;" parent="1" vertex="1">
                    <mxGeometry x="1110" y="490" width="70" height="70" as="geometry"/>
                </mxCell>
                <mxCell id="392" style="edgeStyle=none;html=1;entryX=0;entryY=0.75;entryDx=0;entryDy=0;" parent="1" source="354" target="388" edge="1">
                    <mxGeometry relative="1" as="geometry"/>
                </mxCell>
                <mxCell id="354" value="left" style="ellipse;whiteSpace=wrap;html=1;aspect=fixed;rounded=0;" parent="1" vertex="1">
                    <mxGeometry x="1110" y="575" width="70" height="70" as="geometry"/>
                </mxCell>
                <mxCell id="355" value="Output layer" style="text;html=1;strokeColor=none;fillColor=none;align=center;verticalAlign=middle;whiteSpace=wrap;rounded=0;" parent="1" vertex="1">
                    <mxGeometry x="1090" y="280" width="110" height="30" as="geometry"/>
                </mxCell>
                <mxCell id="386" value="&lt;h1&gt;&lt;span style=&quot;font-weight: 400; text-align: center;&quot;&gt;Output node parameters&lt;/span&gt;&lt;br&gt;&lt;/h1&gt;&lt;hr&gt;&lt;p&gt;ID = {{name}}&lt;br&gt;&lt;/p&gt;&lt;p&gt;parrents (x amount):&lt;/p&gt;&lt;blockquote style=&quot;margin: 0 0 0 40px; border: none; padding: 0px;&quot;&gt;&lt;span style=&quot;background-color: initial;&quot;&gt;parrent1 = {&lt;br&gt;&lt;/span&gt;&lt;span style=&quot;background-color: initial; white-space: pre;&quot;&gt;&#9;&lt;/span&gt;&lt;span style=&quot;background-color: initial;&quot;&gt;pointer = {{parrent node pointer}}&lt;br&gt;&lt;/span&gt;&lt;span style=&quot;background-color: initial; white-space: pre;&quot;&gt;&#9;&lt;/span&gt;&lt;span style=&quot;background-color: initial;&quot;&gt;weigth = {{float from 0 to 1}}&lt;br&gt;}&lt;/span&gt;&lt;/blockquote&gt;&lt;p&gt;&lt;span style=&quot;background-color: initial;&quot;&gt;bias = {{any real number}}&lt;br&gt;&lt;/span&gt;&lt;span style=&quot;background-color: initial;&quot;&gt;&lt;br&gt;value&amp;nbsp;&lt;/span&gt;&lt;span style=&quot;background-color: initial;&quot;&gt;(output of a node):&lt;br&gt;&lt;/span&gt;&lt;span style=&quot;background-color: initial;&quot;&gt;for parrent in parrents:&lt;br&gt;&lt;span style=&quot;white-space: pre;&quot;&gt;&#9;&lt;/span&gt;value += parrent.pointer.value * parrent.weigth&lt;br&gt;value += bias&lt;/span&gt;&lt;/p&gt;" style="text;html=1;strokeColor=none;fillColor=none;spacing=5;spacingTop=-20;whiteSpace=wrap;overflow=hidden;rounded=0;direction=west;" parent="1" vertex="1">
                    <mxGeometry x="1070" y="780" width="325" height="280" as="geometry"/>
                </mxCell>
                <mxCell id="388" value="Get the biggest value&lt;br&gt;that will be the networks output" style="text;html=1;strokeColor=none;fillColor=none;align=left;verticalAlign=middle;whiteSpace=wrap;rounded=0;spacingLeft=5;" parent="1" vertex="1">
                    <mxGeometry x="1260" y="465" width="180" height="40" as="geometry"/>
                </mxCell>
                <mxCell id="394" value="if nth body doesn't exist X and Y should have a value 0" style="text;html=1;strokeColor=none;fillColor=none;align=center;verticalAlign=middle;whiteSpace=wrap;rounded=0;" parent="1" vertex="1">
                    <mxGeometry x="80" y="830" width="160" height="30" as="geometry"/>
                </mxCell>
                <mxCell id="395" value="&lt;ul&gt;&lt;li&gt;1 = up&lt;/li&gt;&lt;li&gt;2 = rigth&lt;/li&gt;&lt;li&gt;3 = down&lt;/li&gt;&lt;li&gt;4 = left&lt;/li&gt;&lt;/ul&gt;" style="text;strokeColor=none;fillColor=none;html=1;whiteSpace=wrap;verticalAlign=middle;overflow=hidden;" vertex="1" parent="1">
                    <mxGeometry x="120" y="80" width="100" height="110" as="geometry"/>
                </mxCell>
            </root>
        </mxGraphModel>
    </diagram>
</mxfile>